<?xml version="1.0" encoding="iso-8859-1"?>
<!-- Generator: Adobe Illustrator 19.0.0, SVG Export Plug-In . SVG Version: 6.00 Build 0)  -->
<svg version="1.1" id="Capa_1" xmlns="http://www.w3.org/2000/svg" xmlns:xlink="http://www.w3.org/1999/xlink" x="0px" y="0px"
	 viewBox="0 0 512 512" style="enable-background:new 0 0 512 512;" xml:space="preserve">
<circle style="fill:#7AE5FE;" cx="256" cy="256" r="256"/>
<path style="fill:#00BED2;" d="M512,256c0-13.037-0.981-25.845-2.862-38.358L413.597,122.1L261.944,267.223l-74.622-75.224
	l0.517,36.424l-33.863-3.078l59.808,60.41L186.88,392.786l-88.35-88.953l0.674,21.311L77,325.364l101.352,101.352l-7.529,29.951
	l53.368,53.368C234.614,511.326,245.228,512,256,512C397.385,512,512,397.385,512,256z"/>
<path style="fill:#FFFFFF;" d="M187.322,191.999l4.87,14.262c2.282,6.683,7.531,11.931,14.213,14.213l14.262,4.87l-14.262,4.87
	c-6.683,2.282-11.931,7.531-14.213,14.213l-4.87,14.262l-4.87-14.262c-2.282-6.683-7.531-11.931-14.213-14.213l-14.262-4.87
	l14.262-4.87c6.683-2.282,11.931-7.531,14.213-14.213L187.322,191.999z"/>
<rect x="283.81" y="67.734" transform="matrix(-0.7071 -0.7071 0.7071 -0.7071 358.0245 578.4333)" style="fill:#795548;" width="30" height="294.667"/>
<rect x="295.978" y="72.774" transform="matrix(0.7071 0.7071 -0.7071 0.7071 244.636 -150.3892)" style="fill:#6D4C41;" width="15.752" height="294.667"/>
<path style="fill:#FEC007;" d="M170.823,456.667L57.215,343.058l95.742-61.018c24.952-15.902,55.544-13.97,74.199,4.685l0,0
	c18.656,18.656,20.588,49.248,4.685,74.199L170.823,456.667z"/>
<path style="fill:#FEB200;" d="M227.156,286.725c-0.178-0.178-0.364-0.344-0.544-0.519L113.487,399.331l57.336,57.336l61.018-95.742
	C247.744,335.973,245.812,305.381,227.156,286.725L227.156,286.725z"/>
<rect x="121.66" y="316.227" transform="matrix(-0.7071 -0.7071 0.7071 -0.7071 88.8697 689.9321)" style="fill:#F47C00;" width="131.329" height="20.667"/>
<rect x="177.069" y="339.184" transform="matrix(0.7071 0.7071 -0.7071 0.7071 308.7353 -46.3186)" style="fill:#EE6C00;" width="66.419" height="20.667"/>
<path style="fill:#E6E6E6;" d="M280.841,344.296l3.145,9.209c1.473,4.315,4.862,7.704,9.177,9.177l9.209,3.145l-9.209,3.145
	c-4.315,1.473-7.704,4.862-9.177,9.177l-3.145,9.209l-3.145-9.209c-1.473-4.315-4.862-7.704-9.177-9.177l-9.209-3.145l9.209-3.145
	c4.315-1.473,7.704-4.862,9.177-9.177L280.841,344.296z"/>
<path style="fill:#FFFFFF;" d="M98.531,303.833l3.145,9.209c1.473,4.315,4.862,7.704,9.177,9.177l9.209,3.145l-9.209,3.145
	c-4.315,1.473-7.704,4.862-9.177,9.177l-3.145,9.209l-3.145-9.209c-1.473-4.315-4.862-7.704-9.177-9.177L77,325.364l9.209-3.145
	c4.315-1.473,7.704-4.862,9.177-9.177L98.531,303.833z"/>
<g>
</g>
<g>
</g>
<g>
</g>
<g>
</g>
<g>
</g>
<g>
</g>
<g>
</g>
<g>
</g>
<g>
</g>
<g>
</g>
<g>
</g>
<g>
</g>
<g>
</g>
<g>
</g>
<g>
</g>
</svg>
